<?xml version="1.0" encoding="utf-8"?>
<!-- Generator: Adobe Illustrator 26.0.0, SVG Export Plug-In . SVG Version: 6.00 Build 0)  -->
<svg version="1.1" id="Слой_1" xmlns="http://www.w3.org/2000/svg" xmlns:xlink="http://www.w3.org/1999/xlink" x="0px" y="0px"
	 viewBox="0 0 1280 1014" style="enable-background:new 0 0 1280 1014;" xml:space="preserve">
<style type="text/css">
	.st0{fill:#8A5A13;}
</style>
<g transform="translate(0.000000,1014.000000) scale(0.100000,-0.100000)">
	<path class="st0" d="M1550,10128c-228-4-583-11-787-14l-373-6v-357c0-196,4-362,9-369c7-12,179-12,1033-2c564,6,1036,8,1050,5
		c29-7,19,12,442-872l316-660V5386V2920h4000c2200,0,4000,2,4000,5c0,16,1543,4742,1551,4750c5,5,9,131,9,287v279l-352-6
		c-194-3-2020-10-4058-15s-3878-12-4090-15s-390-2-397,3c-6,4-169,336-361,738s-369,764-392,805c-140,248-277,335-595,378
		C2467,10141,2183,10141,1550,10128z M11666,7285c6-15-101-350-119-373c-7-9-175-12-801-10l-791,3l-3,192l-2,193l312,3
		C11321,7302,11661,7300,11666,7285z M9005,7095v-190h-480h-480l-3,184c-2,141,1,186,10,193c7,4,225,7,483,5l470-2V7095z M5188,7272
		c9-7,12-51,10-188l-3-179h-505h-505l-3,182l-2,183l407,3c225,1,449,3,498,4C5135,7279,5181,7276,5188,7272z M7095,7090v-185h-475
		h-475l-3,175c-1,96,0,180,2,187c4,11,99,13,478,11l473-3V7090z M5188,5962c9-7,12-73,10-298l-3-289h-505h-505l-3,285
		c-1,157,0,290,3,297c3,10,109,13,497,13C4953,5970,5181,5966,5188,5962z M7088,5962c9-7,12-73,10-298l-3-289h-475h-475l-3,285
		c-1,157,0,290,3,297c3,10,104,13,467,13C6867,5970,7081,5966,7088,5962z M8998,5962c9-7,12-73,10-298l-3-289h-480h-480l-3,285
		c-1,157,0,290,3,297c3,10,105,13,472,13C8774,5970,8991,5966,8998,5962z M11228,5961c11-6-6-68-79-292c-50-156-97-287-103-291
		s-254-7-551-5l-540,2l-3,285c-1,157,0,290,3,297c3,10,136,13,632,13C10932,5970,11221,5966,11228,5961z M5195,4145v-290h-505h-505
		l-3,280c-1,154,0,285,3,292c3,11,108,13,507,11l503-3V4145z M7095,4145v-290h-475h-475l-3,280c-1,154,0,285,3,292
		c3,11,102,13,477,11l473-3V4145z M9005,4145v-290h-480h-480l-3,280c-1,154,0,285,3,292c3,11,103,13,482,11l478-3V4145z M10736,4427
		c2-7-37-139-88-293l-93-279h-300h-300l-3,280c-1,154,0,285,3,292C9962,4446,10728,4446,10736,4427z"/>
	<path class="st0" d="M5079,2420c-386-37-727-257-928-597c-161-273-204-631-114-943c69-239,229-472,424-619c186-141,346-205,617-247
		c109-17,118-17,239,0c167,24,275,56,409,121c452,219,717,687,673,1188c-25,288-143,542-348,748c-203,202-452,320-740,349
		C5200,2431,5193,2431,5079,2420z M5354,1814c202-50,387-236,441-443c21-82,21-226,0-306c-86-325-421-527-739-445
		c-126,32-201,74-291,165c-134,133-192,282-182,465c9,157,69,292,177,400C4924,1812,5130,1869,5354,1814z"/>
	<path class="st0" d="M9219,2420c-552-53-999-479-1080-1030c-25-174,1-426,61-587c146-391,486-685,890-767c199-40,240-42,392-17
		c78,13,182,36,231,52c389,127,689,448,794,849c31,117,43,356,24,478c-67,421-335,766-725,932c-50,21-127,48-171,59
		c-73,18-271,43-320,40C9304,2428,9261,2424,9219,2420z M9475,1819c28-6,88-29,134-51c157-75,282-229,326-403c18-69,20-202,4-277
		c-6-29-29-91-51-138c-56-116-168-230-280-284c-248-119-509-75-704,119c-134,132-192,282-182,469C8743,1636,9095,1900,9475,1819z"/>
</g>
</svg>
